<svg width="40" height="40" viewBox="0 0 40 40" fill="none" xmlns="http://www.w3.org/2000/svg">
<path d="M19.9997 33.334C20.4417 33.3339 20.8655 33.1582 21.178 32.8457L31.178 22.8456C31.4816 22.5313 31.6496 22.1103 31.6458 21.6733C31.642 21.2363 31.4667 20.8183 31.1577 20.5093C30.8487 20.2003 30.4307 20.025 29.9937 20.0212C29.5567 20.0174 29.1357 20.1854 28.8214 20.489L21.6664 27.644V8.33398C21.6664 7.89196 21.4908 7.46803 21.1782 7.15547C20.8657 6.84291 20.4417 6.66732 19.9997 6.66732C19.5577 6.66732 19.1338 6.84291 18.8212 7.15547C18.5086 7.46803 18.333 7.89196 18.333 8.33398V27.644L11.178 20.489C10.8637 20.1854 10.4427 20.0174 10.0057 20.0212C9.56871 20.025 9.15069 20.2003 8.84167 20.5093C8.53266 20.8183 8.35738 21.2363 8.35358 21.6733C8.34978 22.1103 8.51777 22.5313 8.82137 22.8456L18.8214 32.8457C19.1339 33.1582 19.5577 33.3339 19.9997 33.334Z" fill="#578FCA"/>
</svg>
