<svg width="20" height="20" viewBox="0 0 20 20" fill="none" xmlns="http://www.w3.org/2000/svg">
<path d="M16.3356 6.44669L10.4793 12.2104C10.3515 12.3369 10.1791 12.4078 9.99932 12.4078C9.81958 12.4078 9.6471 12.3369 9.51932 12.2104L3.66307 6.44794C3.5345 6.3216 3.36146 6.2508 3.1812 6.2508C3.00094 6.2508 2.82789 6.3216 2.69932 6.44794C2.63601 6.50966 2.5857 6.58343 2.55134 6.66491C2.51699 6.74638 2.49929 6.8339 2.49929 6.92232C2.49929 7.01074 2.51699 7.09826 2.55134 7.17973C2.5857 7.2612 2.63601 7.33497 2.69932 7.39669L8.55432 13.1592C8.93998 13.5379 9.45885 13.75 9.99932 13.75C10.5398 13.75 11.0587 13.5379 11.4443 13.1592L17.2993 7.39669C17.3628 7.33495 17.4133 7.26111 17.4478 7.17952C17.4822 7.09793 17.5 7.01026 17.5 6.92169C17.5 6.83312 17.4822 6.74546 17.4478 6.66387C17.4133 6.58228 17.3628 6.50843 17.2993 6.44669C17.1708 6.32035 16.9977 6.24955 16.8174 6.24955C16.6372 6.24955 16.4641 6.32035 16.3356 6.44669Z" fill="black"/>
</svg>
